<svg width="405" height="452" viewBox="0 0 405 452" fill="none" xmlns="http://www.w3.org/2000/svg">
<path d="M220.831 12.5811L299.554 57.2012L377.557 103.067C389.074 109.839 396.189 122.162 396.295 135.522L397.014 226.008L396.295 316.494C396.189 329.854 389.074 342.176 377.557 348.948L299.554 394.814L220.831 439.434C209.208 446.022 194.979 446.022 183.356 439.434L104.633 394.814L26.6295 348.948C15.1124 342.176 7.99785 329.854 7.89165 316.494L7.17236 226.008L7.89165 135.522C7.99785 122.162 15.1124 109.839 26.6295 103.067L104.633 57.2012L183.356 12.5811C194.979 5.99307 209.208 5.99306 220.831 12.5811Z" stroke="url(#paint0_linear_11_12)" stroke-width="14"/>
<defs>
<linearGradient id="paint0_linear_11_12" x1="202.093" y1="-6.08569" x2="202.093" y2="458.101" gradientUnits="userSpaceOnUse">
<stop stop-color="#FFBE0B"/>
<stop offset="1" stop-color="#FB5607"/>
</linearGradient>
</defs>
</svg>
