<svg width="465" height="466" viewBox="0 0 465 466" fill="none" xmlns="http://www.w3.org/2000/svg">
<path d="M250.831 19.5811L329.554 64.2012L407.557 110.067C419.074 116.839 426.189 129.162 426.295 142.522L427.014 233.008L426.295 323.494C426.189 336.854 419.074 349.176 407.557 355.948L329.554 401.814L250.831 446.434C239.208 453.022 224.979 453.022 213.356 446.434L134.633 401.814L56.6295 355.948C45.1124 349.176 37.9979 336.854 37.8917 323.494L37.1724 233.008L37.8917 142.522C37.9979 129.162 45.1124 116.839 56.6295 110.067L134.633 64.2012L213.356 19.5811C224.979 12.9931 239.208 12.9931 250.831 19.5811Z" stroke="url(#paint0_linear_11_32)" stroke-width="14"/>
<g clip-path="url(#clip0_11_32)">
<path d="M277.062 180.344V180.103C283.767 170.272 293.18 159.753 305.783 152.481C320.724 143.856 337.374 141.389 350.458 141.112C362.366 140.857 369.851 153.821 363.677 164.006C356.901 175.205 346.439 188.389 331.49 197.014C318.435 204.556 304.081 207.391 291.933 208.171C286.517 205.839 280.55 204.549 274.277 204.549C272.767 204.549 271.272 204.627 269.797 204.776C274.39 197.752 277.062 189.36 277.062 180.344Z" fill="#31FF9C"/>
<path d="M277.062 180.103V180.344C277.062 189.36 274.39 197.752 269.797 204.776C269.23 205.656 268.628 206.513 267.996 207.343C260.681 216.982 249.546 223.567 236.838 224.829C235.363 224.977 233.868 225.056 232.358 225.056C230.6 225.056 228.864 224.957 227.163 224.751C214.716 223.312 203.822 216.763 196.649 207.251C196.06 206.471 195.5 205.678 194.969 204.855C190.482 198.029 187.817 189.907 187.661 181.167V181.16C187.654 180.884 187.654 180.621 187.654 180.345C187.654 155.658 207.67 135.641 232.357 135.641C256.975 135.641 276.935 155.529 277.062 180.103Z" fill="#FFBE0B"/>
<path d="M249.781 286.656C254.282 296.792 257.868 309.005 257.868 322.152C257.868 339.405 251.68 355.062 245.372 366.53C239.638 376.971 224.668 376.971 218.934 366.53C212.626 355.062 206.438 339.405 206.438 322.152C206.438 308.905 210.081 296.608 214.631 286.422C222.641 281.049 228.814 273.16 232.025 263.89C235.286 273.303 241.601 281.29 249.781 286.656Z" fill="#31FF9C"/>
<path d="M196.65 207.25C203.823 216.762 214.717 223.311 227.164 224.75C229.169 227.798 230.814 231.115 232.026 234.623C233.614 239.209 234.478 244.128 234.478 249.253C234.478 252.86 234.053 256.369 233.238 259.728C232.905 261.146 232.501 262.535 232.026 263.889C228.815 273.16 222.642 281.049 214.632 286.422C207.523 291.185 198.968 293.963 189.768 293.963C165.081 293.963 145.064 273.946 145.064 249.252C145.064 230.838 156.206 215.017 172.112 208.178C177.527 205.838 183.502 204.548 189.768 204.548C191.525 204.548 193.262 204.648 194.97 204.853C195.501 205.676 196.061 206.471 196.65 207.25Z" fill="#FFBE0B"/>
<path d="M291.933 208.171C307.845 215.018 318.988 230.839 318.988 249.253C318.988 273.947 298.971 293.964 274.277 293.964C265.232 293.964 256.819 291.278 249.781 286.656C241.601 281.29 235.286 273.302 232.025 263.89C232.5 262.536 232.904 261.147 233.238 259.729C234.053 256.369 234.478 252.861 234.478 249.253C234.478 244.129 233.613 239.21 232.025 234.624C230.813 231.115 229.169 227.798 227.163 224.751C228.864 224.956 230.6 225.055 232.358 225.055C233.868 225.055 235.364 224.977 236.838 224.828C249.547 223.566 260.682 216.982 267.997 207.342C268.627 206.513 269.23 205.655 269.797 204.776C271.272 204.627 272.767 204.549 274.277 204.549C280.55 204.55 286.517 205.839 291.933 208.171Z" fill="#FFBE0B"/>
<path d="M187.662 181.167C187.818 189.906 190.483 198.029 194.97 204.855C193.262 204.649 191.525 204.55 189.767 204.55C183.501 204.55 177.526 205.84 172.111 208.179C159.956 207.399 145.581 204.564 132.511 197.016C117.57 188.39 107.108 175.206 100.325 164.008C94.151 153.822 101.636 140.858 113.543 141.114C126.628 141.39 143.285 143.857 158.226 152.483C171.281 160.018 180.914 171.032 187.662 181.161V181.167H187.662Z" fill="#31FF9C"/>
<path d="M189.767 301.052C161.209 301.052 137.976 277.816 137.976 249.253C137.976 228.532 150.275 209.852 169.311 201.667C172.908 200.12 177.076 201.782 178.622 205.378C180.169 208.973 178.506 213.143 174.911 214.689C161.085 220.635 152.152 234.201 152.152 249.253C152.152 269.999 169.026 286.876 189.767 286.876C197.259 286.876 204.493 284.682 210.686 280.534C213.939 278.354 218.341 279.225 220.52 282.477C222.699 285.73 221.829 290.132 218.576 292.31C210.041 298.03 200.079 301.052 189.767 301.052Z" fill="white"/>
<path d="M232.153 381.448C223.942 381.448 216.678 377.147 212.721 369.943C203.975 354.04 199.35 337.514 199.35 322.153C199.35 309.612 202.314 296.617 208.16 283.532C208.703 282.316 209.578 281.278 210.683 280.536C217.467 275.986 222.668 269.25 225.328 261.57C226.609 257.87 230.645 255.911 234.346 257.192C238.045 258.474 240.005 262.51 238.723 266.209C235.294 276.11 228.804 284.866 220.335 291.077C215.816 301.722 213.526 312.167 213.526 322.153C213.526 338.55 219.844 353.478 225.145 363.115C227.206 366.868 230.733 367.273 232.154 367.273C233.575 367.273 237.101 366.869 239.161 363.119C244.463 353.479 250.782 338.551 250.782 322.153C250.782 311.682 248.266 300.707 243.305 289.534C241.716 285.956 243.328 281.768 246.906 280.179C250.482 278.592 254.672 280.203 256.261 283.781C262.032 296.777 264.958 309.688 264.958 322.155C264.958 337.515 260.334 354.042 251.585 369.949C247.627 377.147 240.362 381.448 232.153 381.448Z" fill="white"/>
<path d="M291.926 215.259C288.219 215.26 285.1 212.378 284.859 208.626C284.608 204.719 287.572 201.349 291.478 201.098C305.492 200.198 317.761 196.76 327.945 190.878C342.153 182.679 351.92 169.745 357.612 160.337C359.832 156.674 358.419 153.418 357.709 152.188C356.999 150.959 354.89 148.125 350.609 148.199C339.607 148.431 323.516 150.428 309.326 158.62C299.443 164.323 290.557 172.895 282.917 184.097C280.712 187.331 276.302 188.164 273.067 185.959C269.834 183.753 269 179.343 271.206 176.109C280.056 163.133 290.497 153.118 302.239 146.343C315.721 138.56 331.894 134.415 350.308 134.026C358.508 133.855 365.879 137.99 369.986 145.1C374.092 152.21 373.999 160.651 369.738 167.681C360.21 183.428 348.533 195.365 335.034 203.154C322.947 210.136 308.598 214.205 292.388 215.246C292.233 215.255 292.078 215.259 291.926 215.259Z" fill="white"/>
<path d="M172.11 215.267C171.959 215.267 171.808 215.262 171.656 215.252C155.427 214.21 141.063 210.139 128.965 203.153C115.479 195.367 103.803 183.432 94.2612 167.678C90.002 160.651 89.9094 152.209 94.015 145.099C98.1205 137.989 105.474 133.869 113.694 134.026C132.11 134.415 148.286 138.559 161.77 146.344C173.858 153.32 184.555 163.712 193.56 177.23C195.73 180.488 194.849 184.888 191.591 187.058C188.333 189.229 183.933 188.347 181.763 185.089C173.977 173.403 164.866 164.497 154.682 158.62C140.491 150.428 124.397 148.431 113.394 148.199C109.135 148.111 107.002 150.959 106.291 152.188C105.581 153.418 104.169 156.675 106.386 160.332C112.086 169.745 121.861 182.682 136.054 190.877C145.856 196.537 157.591 199.937 170.956 200.991C176.939 198.648 183.258 197.462 189.768 197.462C191.823 197.462 193.858 197.582 195.818 197.817C199.704 198.285 202.476 201.815 202.007 205.702C201.54 209.588 198.005 212.357 194.123 211.891C192.724 211.723 191.258 211.638 189.768 211.638C184.6 211.638 179.605 212.663 174.922 214.686C174.032 215.069 173.076 215.267 172.11 215.267Z" fill="white"/>
<path d="M274.277 301.052C264.146 301.052 254.33 298.122 245.89 292.581C236.354 286.325 229.051 276.959 225.328 266.209C224.804 264.697 224.807 263.054 225.337 261.544C225.725 260.438 226.061 259.282 226.338 258.106C227.04 255.212 227.39 252.249 227.39 249.254C227.39 245.039 226.696 240.896 225.327 236.942C224.319 234.025 222.946 231.235 221.242 228.648C219.089 225.378 219.996 220.983 223.265 218.83C226.536 216.679 230.931 217.584 233.083 220.853C235.435 224.427 237.333 228.281 238.724 232.309C240.609 237.754 241.565 243.457 241.565 249.253C241.565 253.374 241.08 257.461 240.125 261.401C239.947 262.157 239.746 262.922 239.527 263.683C242.408 270.601 247.366 276.597 253.667 280.73C259.792 284.752 266.917 286.877 274.275 286.877C281.115 286.877 287.809 285.026 293.635 281.523C296.99 279.505 301.344 280.59 303.361 283.944C305.378 287.298 304.294 291.653 300.94 293.671C292.91 298.5 283.69 301.052 274.277 301.052Z" fill="white"/>
<path d="M314.613 275.645C313.584 275.645 312.54 275.421 311.552 274.946C308.023 273.253 306.534 269.019 308.227 265.489C308.407 265.116 308.58 264.738 308.746 264.357C310.319 260.773 314.501 259.144 318.085 260.715C321.67 262.289 323.3 266.47 321.727 270.055C321.496 270.581 321.257 271.103 321.008 271.621C319.789 274.163 317.254 275.645 314.613 275.645Z" fill="white"/>
<path d="M318.967 255.116C315.14 255.116 311.989 252.067 311.884 248.219C311.491 233.625 302.56 220.462 289.13 214.683C283.307 212.176 276.984 211.176 270.508 211.83C266.617 212.233 263.138 209.384 262.744 205.49C262.351 201.596 265.189 198.12 269.084 197.726C270.812 197.551 272.558 197.463 274.275 197.463C281.379 197.463 288.262 198.877 294.735 201.663C313.219 209.617 325.513 227.741 326.055 247.839C326.159 251.752 323.073 255.009 319.159 255.115C319.097 255.115 319.031 255.116 318.967 255.116Z" fill="white"/>
<path d="M232.358 232.142C230.3 232.142 228.266 232.023 226.312 231.786C212.375 230.175 199.488 222.785 190.99 211.517C190.273 210.566 189.627 209.644 189.016 208.701C183.678 200.582 180.749 191.087 180.574 181.292C180.574 181.289 180.574 181.287 180.574 181.286C180.567 180.968 180.566 180.663 180.566 180.343C180.566 151.785 203.8 128.552 232.358 128.552C260.768 128.552 284.002 151.66 284.15 180.065C284.15 180.078 284.15 180.089 284.15 180.102V180.343C284.15 190.44 281.238 200.23 275.729 208.655C275.093 209.64 274.383 210.652 273.641 211.629C264.949 223.083 251.79 230.465 237.539 231.88C235.827 232.054 234.08 232.142 232.358 232.142ZM194.748 181.074C194.882 188.173 197.006 195.049 200.891 200.961C201.342 201.658 201.795 202.305 202.305 202.98C208.481 211.17 217.837 216.538 227.975 217.71C230.597 218.027 233.376 218.054 236.125 217.777C246.477 216.749 256.031 211.385 262.35 203.058C262.877 202.363 263.38 201.649 263.842 200.931C267.861 194.785 269.974 187.677 269.974 180.344V180.123C269.858 159.502 252.988 142.728 232.358 142.728C211.617 142.728 194.742 159.602 194.742 180.343C194.742 180.56 194.742 180.765 194.747 180.981C194.748 181.012 194.748 181.043 194.748 181.074Z" fill="white"/>
</g>
<defs>
<linearGradient id="paint0_linear_11_32" x1="232.093" y1="0.914307" x2="232.093" y2="465.101" gradientUnits="userSpaceOnUse">
<stop stop-color="#FFBE0B"/>
<stop offset="1" stop-color="#FB5607"/>
</linearGradient>
<clipPath id="clip0_11_32">
<rect width="282" height="282" fill="white" transform="translate(91 114)"/>
</clipPath>
</defs>
</svg>
