<svg width="800" height="800" viewBox="0 0 800 800" fill="none" xmlns="http://www.w3.org/2000/svg">
<path d="M399.998 703.145L0 299.852L152.786 96.8625H647.214L800 299.852L399.998 703.145Z" fill="#8EDDFF"/>
<path d="M799.999 299.858L399.999 703.145L607.82 299.858H799.999Z" fill="#8EDDFF"/>
<path d="M399.999 299.858V703.145L607.82 299.858H399.999Z" fill="#33C2FF"/>
<path d="M152.786 96.8547L192.178 299.858H0L152.786 96.8547Z" fill="#33C2FF"/>
<path d="M192.178 299.858H399.998V96.8547L192.178 299.858Z" fill="#76D6FF"/>
<path d="M647.212 96.8547L799.998 299.858H607.82L647.212 96.8547Z" fill="#B7E9FF"/>
<path d="M192.178 299.858L399.998 703.145V299.858H192.178Z" fill="#B7E9FF"/>
<path d="M399.998 96.8547L192.178 299.858L152.786 96.8547H399.998Z" fill="#B7E9FF"/>
<path d="M399.999 96.8547L607.82 299.858L647.213 96.8547H399.999Z" fill="#76D6FF"/>
</svg>
