<svg width="800" height="800" viewBox="0 0 800 800" fill="none" xmlns="http://www.w3.org/2000/svg">
<path d="M400 31.25C389.65 31.25 381.25 39.65 381.25 50C381.25 60.35 389.65 68.75 400 68.75C582.95 68.775 731.25 217.075 731.25 400.025C731.25 491.5 694.175 574.325 634.225 634.275C630.725 637.675 628.55 642.45 628.55 647.7C628.55 658.05 636.95 666.45 647.3 666.45C652.6 666.45 657.375 664.25 660.775 660.75C727.475 594.025 768.725 501.85 768.725 400.05C768.725 196.4 603.625 31.275 399.975 31.275L400 31.25Z" fill="white"/>
</svg>
