<svg width="465" height="465" viewBox="0 0 465 465" fill="none" xmlns="http://www.w3.org/2000/svg">
<path d="M250.831 18.6668L329.554 63.2869L407.557 109.153C419.074 115.925 426.189 128.247 426.295 141.608L427.014 232.093L426.295 322.579C426.189 335.939 419.074 348.262 407.557 355.034L329.554 400.9L250.831 445.52C239.208 452.108 224.979 452.108 213.356 445.52L134.633 400.9L56.6295 355.034C45.1124 348.262 37.9979 335.939 37.8917 322.579L37.1724 232.093L37.8917 141.608C37.9979 128.247 45.1124 115.925 56.6295 109.153L134.633 63.2869L213.356 18.6668C224.979 12.0788 239.208 12.0788 250.831 18.6668Z" stroke="url(#paint0_linear_17_89)" stroke-width="14"/>
<path d="M239.009 297.658H230.025C223.698 297.658 218.556 302.799 218.556 309.126V321.531C218.556 327.858 223.698 333 230.025 333H239.009C245.336 333 250.477 327.858 250.477 321.531V309.126C250.477 302.781 245.336 297.658 239.009 297.658Z" fill="white"/>
<path d="M175.664 201.628L192.236 203.693C197.493 204.343 202.481 201.322 204.374 196.372C206.763 190.122 210.089 185.19 214.351 181.597C220.392 176.512 227.903 173.951 236.887 173.951C246.196 173.951 253.612 176.398 259.117 181.272C264.622 186.165 267.355 192.014 267.355 198.876C267.355 203.807 265.807 208.318 262.71 212.409C260.703 215.008 254.529 220.475 244.227 228.828C233.905 237.181 227.043 244.711 223.603 251.401C220.086 258.244 218.862 265.833 218.557 273.44C218.289 279.958 223.488 285.387 230.025 285.387H239.391C245.355 285.387 250.286 280.818 250.821 274.893C251.204 270.631 251.911 267.4 252.981 265.202C254.778 261.437 259.423 256.467 266.877 250.274C281.308 238.328 290.712 228.885 295.128 221.928C299.524 214.989 301.741 207.63 301.741 199.851C301.741 185.802 295.759 173.473 283.774 162.884C271.809 152.295 255.676 147 235.415 147C216.148 147 200.608 152.218 188.758 162.674C178.665 171.581 172.53 182.132 170.37 194.308C169.701 197.863 172.128 201.189 175.664 201.628Z" fill="white"/>
<defs>
<linearGradient id="paint0_linear_17_89" x1="232.093" y1="0" x2="232.093" y2="464.187" gradientUnits="userSpaceOnUse">
<stop stop-color="#FEF1F5"/>
<stop offset="1" stop-color="#515151"/>
</linearGradient>
</defs>
</svg>
