<svg width="446" height="500" viewBox="0 0 446 500" fill="none" xmlns="http://www.w3.org/2000/svg">
<path opacity="0.5" d="M200.811 6.577C214.575 -1.22465 231.425 -1.22464 245.19 6.57701L334.36 57.1188L422.716 109.072C436.354 117.091 444.78 131.684 444.905 147.505L445.72 250L444.905 352.495C444.78 368.316 436.354 382.909 422.716 390.928L334.36 442.881L245.19 493.423C231.425 501.225 214.575 501.225 200.811 493.423L111.64 442.881L23.2843 390.928C9.64566 382.909 1.22055 368.316 1.09478 352.495L0.280029 250L1.09478 147.505C1.22055 131.684 9.64568 117.091 23.2843 109.072L111.64 57.1188L200.811 6.577Z" fill="url(#paint0_linear_2_43)"/>
<defs>
<linearGradient id="paint0_linear_2_43" x1="223" y1="-6" x2="223" y2="506" gradientUnits="userSpaceOnUse">
<stop stop-color="#00B3FF"/>
<stop offset="1" stop-color="#31FF9C"/>
</linearGradient>
</defs>
</svg>
