<svg width="465" height="465" viewBox="0 0 465 465" fill="none" xmlns="http://www.w3.org/2000/svg">
<path d="M221.673 129.987C229.319 125.653 238.681 125.653 246.328 129.987L280.545 149.382L314.45 169.318C322.027 173.773 326.707 181.88 326.777 190.67L327.09 230L326.777 269.33C326.707 278.12 322.027 286.227 314.45 290.682L280.545 310.618L246.327 330.013C238.681 334.347 229.319 334.347 221.672 330.013L187.455 310.618L153.55 290.682C145.973 286.227 141.293 278.12 141.223 269.33L140.91 230L141.223 190.67C141.293 181.88 145.973 173.773 153.55 169.318L187.455 149.382L221.673 129.987Z" fill="url(#paint0_linear_24_5)"/>
<path d="M250.831 18.6668L329.554 63.2869L407.557 109.153C419.074 115.925 426.189 128.247 426.295 141.608L427.014 232.093L426.295 322.579C426.189 335.939 419.074 348.262 407.557 355.034L329.554 400.9L250.831 445.52C239.208 452.108 224.979 452.108 213.356 445.52L134.633 400.9L56.6295 355.034C45.1124 348.262 37.9979 335.939 37.8917 322.579L37.1724 232.093L37.8917 141.608C37.9979 128.247 45.1124 115.925 56.6295 109.153L134.633 63.2869L213.356 18.6668C224.979 12.0788 239.208 12.0788 250.831 18.6668Z" stroke="url(#paint1_linear_24_5)" stroke-width="14"/>
<path d="M246.307 131.872L279.678 150.786L312.743 170.229C321.229 175.219 326.472 184.299 326.55 194.143L326.855 232.5L326.55 270.857C326.472 280.701 321.229 289.781 312.743 294.771L279.678 314.213L246.307 333.128C237.742 337.982 227.258 337.982 218.693 333.128L185.322 314.214L152.257 294.771C143.771 289.781 138.528 280.701 138.45 270.857L138.145 232.5L138.45 194.143C138.528 184.299 143.771 175.219 152.257 170.229L185.323 150.786L218.693 131.872C227.258 127.018 237.742 127.018 246.307 131.872Z" stroke="white" stroke-width="14"/>
<defs>
<linearGradient id="paint0_linear_24_5" x1="234" y1="123" x2="234" y2="337" gradientUnits="userSpaceOnUse">
<stop stop-color="#00B3FF"/>
<stop offset="1" stop-color="#31FF9C"/>
</linearGradient>
<linearGradient id="paint1_linear_24_5" x1="232.093" y1="0" x2="232.093" y2="464.187" gradientUnits="userSpaceOnUse">
<stop stop-color="#00B2FF"/>
<stop offset="1" stop-color="#31FF9C"/>
</linearGradient>
</defs>
</svg>
