<svg width="404" height="452" viewBox="0 0 404 452" fill="none" xmlns="http://www.w3.org/2000/svg">
<path d="M179.803 6.49132C193.567 -1.31033 210.417 -1.31033 224.182 6.49131L302.953 51.1388L381.004 97.0328C394.643 105.052 403.068 119.645 403.194 135.466L403.914 226.008L403.194 316.549C403.068 332.37 394.643 346.963 381.004 354.983L302.953 400.877L224.182 445.524C210.417 453.326 193.567 453.326 179.803 445.524L101.032 400.877L22.9803 354.983C9.3417 346.963 0.916565 332.37 0.790798 316.549L0.0710602 226.008L0.790798 135.466C0.916565 119.645 9.34169 105.052 22.9803 97.0328L101.032 51.1388L179.803 6.49132Z" fill="url(#paint0_linear_2_42)"/>
<defs>
<linearGradient id="paint0_linear_2_42" x1="201.992" y1="-6.08569" x2="201.992" y2="458.101" gradientUnits="userSpaceOnUse">
<stop stop-color="#00B3FF"/>
<stop offset="1" stop-color="#31FF9C"/>
</linearGradient>
</defs>
</svg>
