<svg width="466" height="512" viewBox="0 0 466 512" fill="none" xmlns="http://www.w3.org/2000/svg">
<path d="M210.803 34.4913C224.567 26.6897 241.417 26.6897 255.182 34.4913L333.953 79.1388L412.004 125.033C425.643 133.052 434.068 147.645 434.194 163.466L434.914 254.008L434.194 344.549C434.068 360.37 425.643 374.963 412.004 382.983L333.953 428.877L255.182 473.524C241.417 481.326 224.567 481.326 210.803 473.524L132.032 428.877L53.9803 382.983C40.3417 374.963 31.9166 360.37 31.7908 344.549L31.0711 254.008L31.7908 163.466C31.9166 147.645 40.3417 133.052 53.9803 125.033L132.032 79.1388L210.803 34.4913Z" fill="url(#paint0_linear_2_47)"/>
<path opacity="0.5" d="M208.811 12.577C222.575 4.77535 239.425 4.77536 253.19 12.577L342.36 63.1188L430.716 115.072C444.354 123.091 452.78 137.684 452.905 153.505L453.72 256L452.905 358.495C452.78 374.316 444.354 388.909 430.716 396.928L342.36 448.881L253.19 499.423C239.425 507.225 222.575 507.225 208.811 499.423L119.64 448.881L31.2843 396.928C17.6457 388.909 9.22055 374.316 9.09478 358.495L8.28003 256L9.09478 153.505C9.22055 137.684 17.6457 123.091 31.2843 115.072L119.64 63.1188L208.811 12.577Z" fill="url(#paint1_linear_2_47)"/>
<defs>
<linearGradient id="paint0_linear_2_47" x1="232.992" y1="21.9143" x2="232.992" y2="486.101" gradientUnits="userSpaceOnUse">
<stop stop-color="#00B3FF"/>
<stop offset="1" stop-color="#31FF9C"/>
</linearGradient>
<linearGradient id="paint1_linear_2_47" x1="231" y1="0" x2="231" y2="512" gradientUnits="userSpaceOnUse">
<stop stop-color="#00B3FF"/>
<stop offset="1" stop-color="#31FF9C"/>
</linearGradient>
</defs>
</svg>
