<svg width="512" height="512" viewBox="0 0 512 512" fill="none" xmlns="http://www.w3.org/2000/svg">
<g clip-path="url(#clip0_98_2)">
<path d="M381.31 126.474V338.725C381.31 353.006 370.813 364.794 357.134 366.859C355.671 367.202 354.208 367.289 352.746 367.289H222.403L127.247 440.849L129.14 367.289H28.4779C26.9289 367.289 25.467 367.203 24.004 366.859C11.873 365.052 2.323 355.416 0.429999 343.285C0.0859998 341.821 0 340.273 0 338.725V126.474C0 110.73 12.733 97.9969 28.4779 97.9969H352.747C368.491 97.9959 381.31 110.729 381.31 126.474Z" fill="#3D3D3D"/>
<path d="M511.999 28.048V297.255C511.999 312.742 499.437 325.303 483.951 325.303H79.4112C63.9252 325.303 51.4492 312.742 51.4492 297.255V28.048C51.4492 12.562 63.9252 0 79.4112 0H483.951C486.274 0 488.511 0.258 490.662 0.861C500.729 3.27 508.73 11.271 511.139 21.337C511.741 23.488 511.999 25.725 511.999 28.048Z" fill="#FF0054"/>
<path d="M205.116 295.741H355.256L358.32 414.179L205.116 295.741Z" fill="#FF0054"/>
<path opacity="0.06" d="M504.525 312.304C498.213 320.239 488.47 325.326 477.563 325.326H356.018L358.316 414.179L243.389 325.326H85.8741C74.9661 325.326 65.2231 320.24 58.9121 312.304H238.242L352.188 400.391L349.921 312.304H504.525Z" fill="black"/>
<path d="M413.466 63.866H143.842V92.973H413.466V63.866Z" fill="#9E0059"/>
<path d="M441.041 144.031H143.842V173.138H441.041V144.031Z" fill="#9E0059"/>
<path d="M305.846 223.693H143.842V252.8H305.846V223.693Z" fill="#9E0059"/>
<path opacity="0.06" d="M211.787 375.495L222.403 367.288H297.664L358.315 414.178V414.175L358.32 414.178L357.096 366.863C357.109 366.859 357.122 366.862 357.134 366.859C370.813 364.794 381.31 353.006 381.31 338.725V325.326H477.562C477.631 325.326 477.693 325.303 477.762 325.303H483.952C499.438 325.303 512 312.742 512 297.255V290.888V75.282L211.787 375.495Z" fill="black"/>
</g>
<defs>
<clipPath id="clip0_98_2">
<rect width="512" height="512" fill="white"/>
</clipPath>
</defs>
</svg>
