<svg width="2412" height="1097" viewBox="0 0 2412 1097" fill="none" xmlns="http://www.w3.org/2000/svg">
<g clip-path="url(#clip0_87_25)">
<path d="M1206 1097C1426.91 1097 1606 917.914 1606 697C1606 476.086 1426.91 297 1206 297C985.086 297 806 476.086 806 697C806 917.914 985.086 1097 1206 1097Z" fill="#444444"/>
<mask id="mask0_87_25" style="mask-type:luminance" maskUnits="userSpaceOnUse" x="806" y="297" width="800" height="800">
<path d="M1606 697C1606 917.912 1426.9 1097 1206 1097C985.088 1097 806 917.912 806 697C806 476.088 985.088 297 1206 297H1606V697Z" fill="white"/>
</mask>
<g mask="url(#mask0_87_25)">
<path opacity="0.2" d="M1054 453C1074.4 449.4 1086.41 437.4 1090 417C1093.6 437.4 1105.61 449.4 1126 453C1105.61 456.608 1093.6 468.6 1090 489C1086.41 468.6 1074.4 456.608 1054 453Z" fill="white"/>
</g>
<mask id="mask1_87_25" style="mask-type:luminance" maskUnits="userSpaceOnUse" x="806" y="297" width="800" height="800">
<path d="M1606 697C1606 917.912 1426.9 1097 1206 1097C985.088 1097 806 917.912 806 697C806 476.088 985.088 297 1206 297H1606V697Z" fill="white"/>
</mask>
<g mask="url(#mask1_87_25)">
<path opacity="0.1" d="M1374 893C1394.4 889.4 1406.41 877.4 1410 857C1413.6 877.4 1425.61 889.4 1446 893C1425.61 896.608 1413.6 908.6 1410 929C1406.41 908.6 1394.4 896.608 1374 893ZM894 813C914.4 809.4 926.408 797.4 930 777C933.6 797.4 945.608 809.4 966 813C945.608 816.608 933.6 828.6 930 849C926.408 828.6 914.4 816.608 894 813Z" fill="white"/>
</g>
<mask id="mask2_87_25" style="mask-type:luminance" maskUnits="userSpaceOnUse" x="806" y="297" width="800" height="800">
<path d="M1606 697C1606 917.912 1426.9 1097 1206 1097C985.088 1097 806 917.912 806 697C806 476.088 985.088 297 1206 297H1606V697Z" fill="white"/>
</mask>
<g mask="url(#mask2_87_25)">
<path d="M1606 297.8C1604.75 297.944 1605.06 298.264 1605.2 297C1418.67 320.832 1312.89 395.248 1252.92 473.28C1250.8 476.045 1248.71 478.837 1246.66 481.656L1246.6 481.736C1182.12 570.568 1174.7 663.496 1174 689H1166L1158 713L1190 745L1214 737V729C1232.99 728.63 1251.91 726.56 1270.53 722.816L1270.54 722.832C1276.38 721.376 1278 723.44 1278 753V825C1278 839.472 1285.54 844.976 1293.56 836.952C1312.94 817.528 1317.58 812.768 1361.56 768.728C1394.84 735.392 1398.97 715.968 1385.22 680.256C1477.62 627.952 1577.46 520.104 1606 297.8Z" fill="#FF0054"/>
<path d="M1190 745L1158 713L1166 689H1182L1214 721V737L1190 745ZM1222 521C1208.26 515.48 1206 513 1190 513C1174 513 1156.54 524.04 1135.11 545.504C1101.08 579.576 1096.31 584.216 1066.98 613.568C1057.4 623.168 1072.1 625 1094 625C1135.86 625 1168.38 624 1180.33 636.36C1196.11 652.68 1222 521 1222 521ZM1606 297C1600.89 336.784 1593.47 373.632 1584.23 406.424C1575.84 390.664 1563.74 371.512 1548.23 356.248C1531.02 339.288 1509.74 327.192 1493.62 319.568C1541.83 305.728 1580.26 300.296 1606 297Z" fill="#9E0059"/>
<path opacity="0.3" d="M1385.22 680.256C1398.97 715.96 1395.71 734.56 1362.38 767.888C1355.63 774.64 1299.76 830.76 1293.55 836.952C1285.53 844.968 1278.26 839.472 1278 825V819.784C1302 795.784 1355.51 748.28 1366 729C1372.14 717.712 1368.82 699.768 1366 689C1339.5 703.08 1273.87 721.752 1270.54 722.832C1245.25 728 1225.74 728.544 1214 729V723.752C1214 723.752 1453.8 646.448 1606 297C1577.25 521.376 1477.62 627.952 1385.22 680.256Z" fill="white"/>
<path d="M1426 521C1397.33 521 1374 497.672 1374 469C1374 440.328 1397.33 417 1426 417C1454.67 417 1478 440.328 1478 469C1478 497.672 1454.67 521 1426 521Z" fill="white"/>
<path d="M1426 425C1437.67 425 1448.86 429.636 1457.11 437.887C1465.36 446.139 1470 457.33 1470 469C1470 480.67 1465.36 491.861 1457.11 500.113C1448.86 508.364 1437.67 513 1426 513C1414.33 513 1403.14 508.364 1394.89 500.113C1386.64 491.861 1382 480.67 1382 469C1382 457.33 1386.64 446.139 1394.89 437.887C1403.14 429.636 1414.33 425 1426 425ZM1426 409C1392.9 409 1366 435.912 1366 469C1366 502.088 1392.9 529 1426 529C1459.1 529 1486 502.088 1486 469C1486 435.912 1459.1 409 1426 409Z" fill="#9E0059"/>
<path d="M1158 713L1190 745L910 1033L862 985L1158 713Z" fill="#D7DCDE"/>
<path d="M1157 713L1173 729L866 1029L842 1005L1157 713Z" fill="#F7F7F7"/>
</g>
</g>
<defs>
<clipPath id="clip0_87_25">
<rect width="800" height="800" fill="white" transform="translate(806 297)"/>
</clipPath>
</defs>
</svg>
