<svg width="800" height="800" viewBox="0 0 800 800" fill="none" xmlns="http://www.w3.org/2000/svg">
<path d="M515.625 80.625L398.75 140L275.625 76.875L25 226.25L141.25 293.125V570L398.75 433.125L652.5 570V293.125L775 222.5L515.625 80.625Z" fill="white"/>
<path d="M141.25 576.25C140 576.25 138.75 576.25 138.125 575.625C136.25 574.375 135 572.5 135 570V296.25L21.875 231.25C20 230.625 18.75 228.125 18.75 226.25C18.75 224.375 20 221.875 21.875 220.625L272.5 71.25C274.375 70 276.875 70 278.75 71.25L399.375 133.125L512.5 75C514.375 73.75 516.25 74.375 518.125 75L777.5 216.875C779.375 218.125 780.625 220 780.625 222.5C780.625 225 779.375 226.875 777.5 228.125L658.125 296.875V570.625C658.125 573.125 656.875 575 655 576.25C653.125 577.5 650.625 577.5 648.75 576.25L398.75 440L144.375 575.625C143.125 576.25 142.5 576.25 141.25 576.25ZM37.5 226.25L144.375 287.5C146.25 288.75 147.5 290.625 147.5 293.125V560L395.625 427.5C397.5 426.25 400 426.25 401.25 427.5L645.625 560V293.125C645.625 290.625 646.875 288.75 648.75 287.5L762.5 222.5L515 88.125L406.25 143.125C406.25 143.75 405.625 143.75 405.625 144.375C403.75 147.5 400 148.125 396.875 146.25L395.625 145H395L275.625 83.75L37.5 226.25Z" fill="white"/>
<path d="M398.75 140L652.5 293.125V570L398.75 433.125V140Z" fill="#9E0059"/>
<path d="M398.75 140L141.25 293.125V570L398.75 433.125V140Z" fill="#9E0059"/>
<path d="M652.5 576.25C651.25 576.25 650.625 576.25 649.375 575.625L395.625 438.125C393.75 436.875 392.5 435 392.5 432.5V140C392.5 137.5 393.75 135.625 395.625 134.375C397.5 133.125 400 133.125 401.875 134.375L655.625 287.5C657.5 288.75 658.75 290.625 658.75 293.125V570.625C658.75 573.125 657.5 575 655.625 576.25H652.5ZM405 429.375L646.25 560V296.25L405 151.25V429.375Z" fill="white"/>
<path d="M141.25 576.25C140 576.25 138.75 576.25 138.125 575.625C136.25 574.375 135 572.5 135 570V293.125C135 290.625 136.25 288.75 138.125 287.5L395.625 134.375C397.5 133.125 400 133.125 401.875 134.375C403.75 135.625 405 137.5 405 140V433.125C405 435.625 403.75 437.5 401.875 438.75L144.375 576.25H141.25ZM147.5 296.25V560L392.5 429.375V151.25L147.5 296.25Z" fill="white"/>
<path d="M398.75 430L290.625 387.5L141.25 292.5V570L398.75 723.125L652.5 570V292.5L538.125 377.5L398.75 430Z" fill="#FF0054"/>
<path d="M398.75 729.375C397.5 729.375 396.25 729.375 395.625 728.75L138.125 575.625C136.25 574.375 135 572.5 135 570V292.5C135 290 136.25 288.125 138.125 286.875C140 285.625 142.5 285.625 144.375 286.875L293.75 381.875L399.375 423.75L535.625 371.875L648.75 287.5C650.625 286.25 653.125 285.625 655 286.875C656.875 288.125 658.125 290 658.125 292.5V570C658.125 572.5 656.875 574.375 655 575.625L401.25 728.75C401.25 728.75 400 729.375 398.75 729.375ZM147.5 566.875L398.75 716.25L646.25 566.875V305L541.875 382.5C541.25 383.125 540.625 383.125 540.625 383.125L401.25 436.25C400 436.875 398.125 436.875 396.875 436.25L288.75 393.75C288.125 393.75 288.125 393.125 287.5 393.125L147.5 304.375V566.875Z" fill="white"/>
<path d="M398.75 723.125L652.5 570V292.5L520 386.875L398.75 430V723.125Z" fill="#9E0059"/>
<path d="M398.75 729.375C397.5 729.375 396.875 729.375 395.625 728.75C393.75 727.5 392.5 725.625 392.5 723.125V430C392.5 427.5 394.375 425 396.875 424.375L517.5 381.25L648.75 287.5C650.625 286.25 653.125 286.25 655 286.875C656.875 288.125 658.125 290 658.125 292.5V570C658.125 572.5 656.875 574.375 655 575.625L401.25 728.75C401.25 728.75 400 729.375 398.75 729.375ZM405 434.375V711.875L646.25 566.875V305L523.75 391.875C523.125 392.5 522.5 392.5 522.5 392.5L405 434.375Z" fill="white"/>
<path d="M25 359.375L141.25 292.5L398.75 430L275 500.625L25 359.375Z" fill="white"/>
<path d="M509 541.875L646.5 471.25V293.125L534.625 375.625L394.625 428.75L392.75 430L509 541.875Z" fill="#9E0059"/>
<path d="M398.75 430L515 496.875L775 363.125L652.5 293.125L398.75 430Z" fill="white"/>
<path d="M275 506.875C273.75 506.875 273.125 506.875 271.875 506.25L21.875 365C20 363.75 18.75 361.875 18.75 359.375C18.75 356.875 20 355 21.875 353.75L138.125 287.5C140 286.25 142.5 286.25 144.375 287.5L401.875 425C403.75 426.25 405 428.125 405 430.625C405 433.125 403.75 435 401.875 436.25L278.125 506.25C277.5 506.875 276.25 506.875 275 506.875ZM37.5 359.375L275 493.75L385.625 430.625L141.25 300L37.5 359.375Z" fill="white"/>
<path d="M515 503.125C513.75 503.125 513.125 503.125 511.875 502.5L395.625 435.625C393.75 434.375 392.5 432.5 392.5 430C392.5 427.5 393.75 425.625 395.625 424.375L649.375 286.875C651.25 285.625 653.75 285.625 655.625 286.875L778.125 357.5C780 358.75 781.25 360.625 781.25 363.125C781.25 365.625 780 367.5 778.125 368.75L518.125 502.5C516.875 503.125 516.25 503.125 515 503.125ZM411.875 430L515.625 489.375L762.5 362.5L651.875 300L411.875 430Z" fill="white"/>
</svg>
