<svg width="465" height="465" viewBox="0 0 465 465" fill="none" xmlns="http://www.w3.org/2000/svg">
<path d="M250.831 18.7525L329.554 63.3726L407.557 109.238C419.074 116.01 426.189 128.333 426.295 141.693L427.014 232.179L426.295 322.665C426.189 336.025 419.074 348.348 407.557 355.12L329.554 400.986L250.831 445.606C239.208 452.194 224.979 452.194 213.356 445.606L134.633 400.986L56.6295 355.12C45.1124 348.348 37.9979 336.025 37.8917 322.665L37.1724 232.179L37.8917 141.693C37.9979 128.333 45.1124 116.01 56.6295 109.238L134.633 63.3726L213.356 18.7525C224.979 12.1645 239.208 12.1645 250.831 18.7525Z" stroke="url(#paint0_linear_16_78)" stroke-width="14"/>
<path d="M333.222 131.776C338.544 151.675 337.781 172.863 330.94 192.399H330.934L272.6 134.064V134.059C292.136 127.217 313.323 126.454 333.222 131.776Z" fill="#FF0054"/>
<path d="M170.439 232.338L216.263 179.005H216.268L233.996 158.37C245.265 147.1 258.501 138.997 272.6 134.059V134.064L330.934 192.399H330.94C326.002 206.497 317.898 219.733 306.629 231.003L285.994 248.73L232.655 294.554L217.105 279.004L201.549 263.449L185.994 247.894L170.439 232.338ZM278.716 224.698C289.328 214.091 289.328 196.884 278.716 186.278C268.109 175.665 250.902 175.665 240.295 186.278C229.683 196.884 229.683 214.091 240.295 224.698C250.902 235.31 268.109 235.31 278.716 224.698Z" fill="#9E0059"/>
<path d="M285.994 248.73C286.909 272.709 278.211 296.994 259.905 315.3C254.284 320.916 248.105 325.633 241.536 329.44L232.655 294.554L285.994 248.73Z" fill="#9E0059"/>
<path d="M278.716 186.278C289.328 196.884 289.328 214.091 278.716 224.698C268.109 235.31 250.902 235.31 240.295 224.698C229.683 214.091 229.683 196.884 240.295 186.278C250.902 175.665 268.109 175.665 278.716 186.278Z" fill="#00B2FF"/>
<path d="M232.655 294.554L211.651 302.29C205.877 304.42 199.393 302.994 195.044 298.64L191.442 295.038L217.105 279.004L232.655 294.554Z" fill="#FF0054"/>
<path d="M217.105 279.004L191.442 295.038H191.437L180.699 284.3L201.549 263.449L217.105 279.004Z" fill="#FF0054"/>
<path d="M216.263 179.005L170.439 232.338L135.558 223.462C139.365 216.894 144.082 210.715 149.699 205.093C168.004 186.788 192.278 178.09 216.263 179.005Z" fill="#9E0059"/>
<path d="M201.549 263.449L180.699 284.3L169.96 273.556L185.994 247.894L201.549 263.449Z" fill="#FF0054"/>
<path d="M185.994 247.894L169.96 273.556L166.353 269.954C162.004 265.6 160.579 259.121 162.703 253.347L170.439 232.338L185.994 247.894Z" fill="#FF0054"/>
<path d="M138.187 301.506C136.842 301.506 135.495 300.992 134.469 299.966C132.415 297.912 132.415 294.583 134.469 292.529L145.27 281.727C147.324 279.674 150.654 279.674 152.708 281.727C154.761 283.781 154.761 287.111 152.708 289.165L141.906 299.966C140.879 300.992 139.534 301.506 138.187 301.506Z" fill="white"/>
<path d="M128.259 341.988C126.913 341.988 125.567 341.474 124.54 340.447C122.486 338.393 122.487 335.064 124.54 333.01L160.547 297.009C162.6 294.956 165.93 294.956 167.984 297.009C170.037 299.063 170.037 302.393 167.983 304.446L131.976 340.447C130.95 341.474 129.605 341.988 128.259 341.988Z" fill="white"/>
<path d="M161.541 339.264C160.195 339.264 158.85 338.75 157.823 337.723C155.769 335.67 155.769 332.34 157.823 330.286L175.823 312.286C177.877 310.233 181.207 310.234 183.26 312.286C185.314 314.34 185.314 317.669 183.26 319.723L165.26 337.723C164.233 338.75 162.887 339.264 161.541 339.264Z" fill="white"/>
<path d="M232.655 299.813C231.308 299.813 229.963 299.299 228.936 298.273L166.72 236.057C164.667 234.003 164.667 230.674 166.72 228.619C168.774 226.566 172.104 226.566 174.158 228.619L236.374 290.836C238.427 292.889 238.427 296.219 236.374 298.273C235.347 299.3 234 299.813 232.655 299.813Z" fill="white"/>
<path d="M259.506 237.915C250.842 237.915 242.699 234.541 236.576 228.415C230.451 222.293 227.077 214.15 227.077 205.487C227.077 196.824 230.451 188.681 236.577 182.557C242.699 176.433 250.842 173.059 259.505 173.059C268.168 173.059 276.311 176.433 282.435 182.559C288.559 188.68 291.933 196.823 291.933 205.487C291.933 214.149 288.559 222.291 282.435 228.414C282.435 228.416 282.435 228.415 282.433 228.417C276.31 234.542 268.168 237.915 259.506 237.915ZM259.506 183.577C253.653 183.577 248.151 185.856 244.015 189.995C239.874 194.133 237.595 199.635 237.595 205.488C237.595 211.34 239.874 216.842 244.013 220.978C248.151 225.119 253.653 227.398 259.506 227.398C265.359 227.398 270.86 225.119 274.996 220.98C274.997 220.98 274.998 220.979 274.998 220.978C279.137 216.842 281.416 211.34 281.416 205.488C281.416 199.635 279.137 194.133 274.998 189.997C270.86 185.856 265.359 183.577 259.506 183.577Z" fill="white"/>
<path d="M169.956 278.815C169.004 278.815 168.04 278.558 167.174 278.016C164.711 276.477 163.962 273.232 165.5 270.77L181.534 245.107C183.073 242.644 186.318 241.894 188.781 243.434C191.244 244.973 191.993 248.217 190.454 250.68L174.42 276.342C173.423 277.939 171.709 278.815 169.956 278.815Z" fill="white"/>
<path d="M180.699 289.558C179.353 289.558 178.007 289.045 176.98 288.018C174.927 285.965 174.926 282.635 176.98 280.581L197.83 259.73C199.884 257.677 203.214 257.677 205.267 259.73C207.321 261.784 207.321 265.113 205.268 267.167L184.417 288.018C183.391 289.045 182.044 289.558 180.699 289.558Z" fill="white"/>
<path d="M191.447 300.297C189.694 300.297 187.98 299.421 186.983 297.825C185.444 295.361 186.193 292.117 188.656 290.579L214.319 274.545C216.781 273.005 220.026 273.754 221.565 276.218C223.104 278.681 222.354 281.925 219.892 283.464L194.229 299.498C193.362 300.04 192.399 300.297 191.447 300.297Z" fill="white"/>
<path d="M216.266 184.263C215.053 184.263 213.834 183.846 212.842 182.993C210.639 181.101 210.387 177.781 212.28 175.578L230.007 154.942C231.899 152.74 235.219 152.488 237.423 154.381C239.626 156.273 239.877 159.593 237.984 161.796L220.257 182.431C219.218 183.642 217.746 184.263 216.266 184.263Z" fill="white"/>
<path d="M206.227 308.515C200.733 308.515 195.329 306.367 191.324 302.356L187.863 298.895C187.814 298.85 187.766 298.804 187.719 298.756L162.638 273.675C156.858 267.887 154.948 259.197 157.769 251.531L165.505 230.522C165.722 229.933 166.042 229.387 166.451 228.912L212.275 175.578C214.169 173.376 217.488 173.124 219.691 175.017C221.894 176.91 222.145 180.229 220.252 182.432L175.046 235.046L167.639 255.164C166.228 258.997 167.184 263.344 170.074 266.238L195.018 291.182C195.066 291.227 195.114 291.273 195.161 291.32L198.763 294.922C201.654 297.817 205.997 298.771 209.832 297.357L229.947 289.948L303.202 227.015C305.406 225.121 308.726 225.374 310.618 227.576C312.511 229.779 312.259 233.099 310.056 234.992L236.081 298.543C235.606 298.952 235.061 299.272 234.473 299.489L213.469 307.225C211.113 308.093 208.661 308.515 206.227 308.515Z" fill="white"/>
<path d="M306.629 236.261C305.283 236.261 303.937 235.748 302.91 234.721C300.857 232.668 300.857 229.338 302.91 227.284C313.367 216.827 321.127 204.506 325.976 190.66C332.148 173.037 333.142 154.244 328.888 136.11C310.756 131.856 291.961 132.85 274.338 139.021C260.492 143.87 248.17 151.631 237.713 162.087C235.66 164.14 232.331 164.141 230.276 162.087C228.222 160.034 228.222 156.704 230.276 154.65C241.858 143.068 255.513 134.47 270.861 129.095C291.453 121.885 313.487 121.054 334.581 126.696C336.397 127.182 337.816 128.601 338.302 130.417C343.943 151.512 343.114 173.546 335.902 194.137C330.527 209.485 321.929 223.139 310.347 234.721C309.321 235.748 307.975 236.261 306.629 236.261Z" fill="white"/>
<path d="M330.935 197.658C329.588 197.658 328.243 197.144 327.216 196.118L268.881 137.782C266.828 135.729 266.828 132.399 268.881 130.345C270.936 128.291 274.265 128.292 276.319 130.345L334.654 188.68C336.707 190.734 336.707 194.064 334.654 196.118C333.626 197.144 332.28 197.658 330.935 197.658Z" fill="white"/>
<path d="M170.444 237.597C170.007 237.597 169.566 237.542 169.142 237.435L134.261 228.558C132.664 228.152 131.349 227.019 130.71 225.501C130.071 223.981 130.182 222.25 131.008 220.825C135.098 213.768 140.135 207.226 145.978 201.377C164.531 182.824 190.214 172.746 216.438 173.749C219.262 173.842 221.524 176.159 221.524 179.005C221.524 181.909 219.172 184.263 216.268 184.263H216.263C216.196 184.263 216.129 184.262 216.062 184.26C192.746 183.366 169.909 192.319 153.417 208.812C149.902 212.329 146.716 216.129 143.898 220.158L171.627 227.214C173.96 227.753 175.7 229.843 175.7 232.338C175.7 235.242 173.349 237.597 170.444 237.597Z" fill="white"/>
<path d="M241.537 334.699C240.845 334.699 240.152 334.563 239.498 334.288C237.979 333.649 236.847 332.335 236.44 330.738L227.558 295.852C226.841 293.037 228.542 290.175 231.357 289.458C234.17 288.74 237.034 290.442 237.75 293.257L244.839 321.101C248.869 318.282 252.669 315.096 256.188 311.58C272.679 295.089 281.628 272.253 280.738 248.93C280.627 246.028 282.89 243.586 285.792 243.475C288.689 243.352 291.137 245.627 291.248 248.529C292.248 274.768 282.18 300.461 263.623 319.019C257.773 324.863 251.229 329.899 244.173 333.99C243.362 334.461 242.451 334.699 241.537 334.699Z" fill="white"/>
<defs>
<linearGradient id="paint0_linear_16_78" x1="232.093" y1="0.0856934" x2="232.093" y2="464.272" gradientUnits="userSpaceOnUse">
<stop stop-color="#FF0054"/>
<stop offset="1" stop-color="#9E0059"/>
</linearGradient>
</defs>
</svg>
