<svg width="800" height="800" viewBox="0 0 800 800" fill="none" xmlns="http://www.w3.org/2000/svg">
<path d="M125 600V625H100V600H125ZM250 425H225V450H250V425ZM325 350H300V375H325V350ZM225 250H200V275H225V250ZM250 550H225V575H250V550ZM625 375H600V400H625V375ZM750 450H725V475H750V450ZM675 75H650V100H675V75ZM500 225H475V250H500V225ZM450 62.5C450 69.4 455.6 75 462.5 75C469.4 75 475 69.4 475 62.5C475 55.6 469.4 50 462.5 50C455.6 50 450 55.6 450 62.5ZM462.5 25C483.2 25 500 41.775 500 62.5C500 83.225 483.2 100 462.5 100C441.8 100 425 83.225 425 62.5C425 41.775 441.8 25 462.5 25ZM625 237.5C625 244.4 630.6 250 637.5 250C644.4 250 650 244.4 650 237.5C650 230.6 644.4 225 637.5 225C630.6 225 625 230.6 625 237.5ZM637.5 200C658.2 200 675 216.775 675 237.5C675 258.225 658.2 275 637.5 275C616.8 275 600 258.225 600 237.5C600 216.775 616.8 200 637.5 200ZM75 312.5C75 319.4 80.6 325 87.5 325C94.4 325 100 319.4 100 312.5C100 305.6 94.4 300 87.5 300C80.6 300 75 305.6 75 312.5ZM87.5 275C108.2 275 125 291.775 125 312.5C125 333.225 108.2 350 87.5 350C66.8 350 50 333.225 50 312.5C50 291.775 66.8 275 87.5 275ZM250 737.5C250 744.4 255.6 750 262.5 750C269.4 750 275 744.4 275 737.5C275 730.6 269.4 725 262.5 725C255.6 725 250 730.6 250 737.5ZM262.5 700C283.2 700 300 716.775 300 737.5C300 758.225 283.2 775 262.5 775C241.8 775 225 758.225 225 737.5C225 716.775 241.8 700 262.5 700Z" fill="#9E0059"/>
<path d="M675 525C661.3 525 648.9 530.55 639.85 539.475L495.7 445.125C498.425 438.975 500 432.175 500 425C500 397.4 477.625 375 450 375C447.125 375 444.375 375.375 441.625 375.85L409.875 310.75C419.2 301.65 425 289.025 425 275C425 247.4 402.625 225 375 225C370.175 225 365.6 225.9 361.2 227.175L335.15 185.525C344.3 176.475 350 163.9 350 150C350 122.4 327.625 100 300 100C278.675 100 260.6 113.425 253.4 132.225L149.575 120.875C147.45 95.225 126.2 75 100 75C72.375 75 50 97.4 50 125C50 152.6 72.375 175 100 175C120.25 175 137.6 162.9 145.45 145.575L250.7 157.075C254.175 181.3 274.8 200 300 200C304.675 200 309.125 199.15 313.425 197.95L339.575 239.75C330.575 248.775 325 261.25 325 275C325 302.6 347.375 325 375 325C379.55 325 383.9 324.2 388.1 323.05L418.875 386.175C407.45 395.325 400 409.225 400 425C400 442.725 409.275 458.2 423.175 467.075L404.6 525.45C403.075 525.325 401.575 525 400 525C372.375 525 350 547.4 350 575C350 602.6 372.375 625 400 625C412.625 625 424.025 620.15 432.85 612.425L526.4 663.75C525.55 667.375 525 671.125 525 675C525 702.6 547.375 725 575 725C602.625 725 625 702.6 625 675C625 666.1 622.475 657.825 618.375 650.575L650.575 618.375C657.825 622.475 666.075 625 675 625C702.625 625 725 602.6 725 575C725 547.4 702.625 525 675 525ZM100 150C86.225 150 75 138.775 75 125C75 111.225 86.225 100 100 100C113.775 100 125 111.225 125 125C125 138.775 113.775 150 100 150ZM275 150C275 136.225 286.225 125 300 125C313.775 125 325 136.225 325 150C325 163.775 313.775 175 300 175C286.225 175 275 163.775 275 150ZM350 275C350 261.225 361.225 250 375 250C388.775 250 400 261.225 400 275C400 288.775 388.775 300 375 300C361.225 300 350 288.775 350 275ZM475 425C475 438.775 463.775 450 450 450C436.225 450 425 438.775 425 425C425 411.225 436.225 400 450 400C463.775 400 475 411.225 475 425ZM400 600C386.225 600 375 588.775 375 575C375 561.225 386.225 550 400 550C413.775 550 425 561.225 425 575C425 588.775 413.775 600 400 600ZM446.95 591.675C448.8 586.425 450 580.875 450 575C450 557.85 441.35 542.75 428.2 533.75L447 474.7C448 474.75 448.975 475 450 475C461.325 475 471.65 471.1 480.05 464.75L627.225 561.075C625.925 565.525 625 570.125 625 575C625 584.6 627.85 593.475 632.525 601.075L601.075 632.5C593.475 627.825 584.6 625 575 625C560.275 625 547.175 631.475 538.025 641.625L446.95 591.675ZM575 700C561.225 700 550 688.775 550 675C550 661.225 561.225 650 575 650C588.775 650 600 661.225 600 675C600 688.775 588.775 700 575 700ZM675 600C661.225 600 650 588.775 650 575C650 561.225 661.225 550 675 550C688.775 550 700 561.225 700 575C700 588.775 688.775 600 675 600Z" fill="#FF0054"/>
</svg>
