<svg width="405" height="452" viewBox="0 0 405 452" fill="none" xmlns="http://www.w3.org/2000/svg">
<path d="M183.356 12.6668C194.979 6.07876 209.208 6.07876 220.831 12.6668L299.554 57.2869L377.557 103.153C389.074 109.925 396.189 122.247 396.295 135.608L397.014 226.093L396.295 316.579C396.189 329.939 389.074 342.262 377.557 349.034L299.554 394.9L220.831 439.52C209.208 446.108 194.979 446.108 183.356 439.52L104.633 394.9L26.6295 349.034C15.1124 342.262 7.99786 329.939 7.89165 316.579L7.17236 226.093L7.89165 135.608C7.99786 122.247 15.1124 109.925 26.6295 103.153L104.633 57.2869L183.356 12.6668Z" stroke="url(#paint0_linear_16_80)" stroke-width="14"/>
<defs>
<linearGradient id="paint0_linear_16_80" x1="202.093" y1="-6" x2="202.093" y2="458.187" gradientUnits="userSpaceOnUse">
<stop stop-color="#4CC9F0"/>
<stop offset="1" stop-color="#4361EE"/>
</linearGradient>
</defs>
</svg>
