<svg width="512" height="512" viewBox="0 0 512 512" fill="none" xmlns="http://www.w3.org/2000/svg">
<g clip-path="url(#clip0_42_202)">
<path d="M269.885 270.481C269.95 270.416 270.004 270.362 270.069 270.297V270.286C270.384 269.972 270.677 269.657 270.969 269.321C271.024 269.266 271.078 269.201 271.121 269.136C271.414 268.811 271.685 268.464 271.946 268.117C272.542 267.314 273.085 266.468 273.562 265.578C273.692 265.34 273.812 265.09 273.931 264.841C274.072 264.548 274.202 264.255 274.332 263.962C274.582 263.365 274.809 262.758 275.005 262.129C275.102 261.814 275.189 261.5 275.265 261.185C275.493 260.306 275.666 259.395 275.764 258.462C275.786 258.311 275.807 258.148 275.818 257.985C275.873 257.41 275.894 256.814 275.894 256.217V184.624C275.894 173.635 266.988 164.73 256 164.73C250.511 164.73 245.543 166.953 241.942 170.555C238.34 174.156 236.117 179.135 236.117 184.624V236.334H160.184C149.196 236.334 140.29 245.239 140.29 256.228C140.29 267.216 149.196 276.122 160.184 276.122H256C261.402 276.122 266.305 273.974 269.885 270.481ZM62.9152 256C62.9152 149.359 149.359 62.9153 256 62.9153C362.641 62.9153 449.085 149.359 449.085 256C449.085 362.641 362.641 449.085 256 449.085C149.359 449.085 62.9152 362.641 62.9152 256Z" fill="#00B3FF"/>
<path d="M256 10.8474C391.398 10.8474 501.153 120.602 501.153 256C501.153 391.398 391.398 501.152 256 501.152C120.602 501.152 10.8474 391.398 10.8474 256C10.8474 120.602 120.602 10.8474 256 10.8474ZM449.085 256C449.085 149.359 362.641 62.9152 256 62.9152C149.359 62.9152 62.9152 149.359 62.9152 256C62.9152 362.641 149.359 449.085 256 449.085C362.641 449.085 449.085 362.641 449.085 256Z" fill="#4361EE"/>
<path d="M275.894 184.624V256.217C275.894 256.814 275.873 257.41 275.818 257.985C275.807 258.148 275.786 258.3 275.764 258.462C275.666 259.395 275.493 260.306 275.265 261.185C275.189 261.5 275.102 261.814 275.005 262.129C274.809 262.758 274.582 263.365 274.332 263.962C274.202 264.255 274.072 264.548 273.931 264.841C273.812 265.09 273.692 265.34 273.562 265.578C273.085 266.468 272.542 267.314 271.946 268.117C271.685 268.464 271.414 268.811 271.121 269.136C271.078 269.201 271.024 269.266 270.969 269.321C270.677 269.657 270.384 269.972 270.069 270.286C270.004 270.351 269.939 270.416 269.874 270.471C266.294 273.963 261.391 276.111 256 276.111C245.022 276.111 236.117 267.205 236.117 256.217V236.334V184.624C236.117 179.135 238.34 174.156 241.942 170.555C245.543 166.953 250.511 164.729 256 164.729C266.988 164.729 275.894 173.635 275.894 184.624Z" fill="#4361EE"/>
<path d="M269.874 270.47L269.885 270.481C266.305 273.974 261.402 276.122 256 276.122H160.184C149.196 276.122 140.29 267.216 140.29 256.228C140.29 245.239 149.196 236.333 160.184 236.333H236.117V256.217C236.117 267.205 245.022 276.111 256 276.111C261.391 276.111 266.294 273.963 269.874 270.47Z" fill="#4361EE"/>
<path d="M256 512C187.618 512 123.33 485.372 74.9798 437.021C26.6283 388.67 0 324.382 0 256C0 187.618 26.6283 123.33 74.9798 74.9787C123.33 26.6283 187.618 0 256 0C324.382 0 388.67 26.6283 437.021 74.9787C485.372 123.33 512 187.618 512 256C512 324.382 485.372 388.67 437.021 437.021C388.67 485.372 324.382 512 256 512ZM256 21.6949C193.413 21.6949 134.574 46.067 90.3203 90.3203C46.0659 134.574 21.6949 193.413 21.6949 256C21.6949 318.587 46.0659 377.426 90.3203 421.68C134.574 465.933 193.413 490.305 256 490.305C318.587 490.305 377.426 465.933 421.68 421.68C465.933 377.426 490.305 318.587 490.305 256C490.305 193.413 465.933 134.574 421.68 90.3203C377.426 46.067 318.587 21.6949 256 21.6949Z" fill="white"/>
<path d="M275.775 268.761C275.308 268.761 274.838 268.73 274.363 268.663C268.726 267.89 264.782 262.702 265.553 257.065C266.03 251.737 270.504 247.681 275.806 247.681C276.032 247.681 276.258 247.689 276.484 247.703C282.164 248.073 286.469 252.975 286.101 258.654C286.073 259.064 286.03 259.446 285.975 259.851C285.265 265.012 280.845 268.761 275.775 268.761Z" fill="white"/>
<path d="M275.007 272.437C273.987 272.437 272.95 272.283 271.924 271.963C266.493 270.262 263.468 264.48 265.168 259.049C265.195 258.962 265.22 258.876 265.241 258.789C266.563 253.252 272.118 249.837 277.659 251.163C283.195 252.486 286.609 258.046 285.285 263.581C285.156 264.124 285.006 264.666 284.837 265.208C283.458 269.616 279.393 272.437 275.007 272.437Z" fill="white"/>
<path d="M273.553 275.886C271.895 275.886 270.212 275.484 268.65 274.638C263.654 271.928 261.796 265.686 264.494 260.686L264.632 260.401C264.738 260.181 264.825 259.98 264.914 259.78C267.225 254.579 273.315 252.235 278.515 254.544C283.716 256.855 286.06 262.943 283.751 268.145C283.58 268.532 283.407 268.916 283.222 269.302C283.018 269.724 282.826 270.115 282.622 270.491C280.755 273.932 277.212 275.886 273.553 275.886Z" fill="white"/>
<path d="M271.118 279.441C268.669 279.441 266.212 278.574 264.244 276.811C260.006 273.013 259.649 266.498 263.447 262.26C263.538 262.155 263.619 262.043 263.702 261.932C267.116 257.379 273.578 256.457 278.129 259.872C282.681 263.287 283.605 269.747 280.189 274.3C279.875 274.718 279.389 275.352 278.796 276.014C276.762 278.285 273.945 279.441 271.118 279.441Z" fill="white"/>
<path d="M256 286.427H160.184C143.532 286.427 129.985 272.88 129.985 256.228C129.985 239.576 143.532 226.029 160.184 226.029H236.117C241.808 226.029 246.422 230.642 246.422 236.334C246.422 242.025 241.808 246.639 236.117 246.639H160.184C154.897 246.639 150.595 250.941 150.595 256.228C150.595 261.515 154.896 265.817 160.184 265.817H256C258.465 265.817 260.789 264.897 262.565 263.223C262.636 263.147 262.709 263.073 262.782 262.999C262.927 262.854 263.063 262.708 263.197 262.554C266.935 258.262 273.443 257.812 277.736 261.549C282.028 265.286 282.479 271.795 278.742 276.087C278.396 276.484 278.049 276.863 277.686 277.236C277.598 277.334 277.507 277.43 277.414 277.525L277.112 277.826C271.42 283.382 263.932 286.427 256 286.427Z" fill="white"/>
<path d="M256 103.789C250.009 103.789 245.153 98.9311 245.153 92.9411V62.9153C245.153 56.9254 250.009 52.0679 256 52.0679C261.99 52.0679 266.847 56.9254 266.847 62.9153V92.9411C266.847 98.9311 261.99 103.789 256 103.789Z" fill="white"/>
<path d="M256 459.932C250.009 459.932 245.153 455.075 245.153 449.085V419.059C245.153 413.069 250.009 408.211 256 408.211C261.99 408.211 266.847 413.069 266.847 419.059V449.085C266.847 455.075 261.99 459.932 256 459.932Z" fill="white"/>
<path d="M449.085 266.848H419.059C413.069 266.848 408.212 261.991 408.212 256C408.212 250.009 413.069 245.153 419.059 245.153H449.085C455.075 245.153 459.932 250.009 459.932 256C459.932 261.991 455.075 266.848 449.085 266.848Z" fill="white"/>
<path d="M92.941 266.848H62.9153C56.9242 266.848 52.0678 261.991 52.0678 256C52.0678 250.009 56.9242 245.153 62.9153 245.153H92.941C98.9321 245.153 103.788 250.009 103.788 256C103.788 261.991 98.9321 266.848 92.941 266.848Z" fill="white"/>
<path d="M337.519 125.637C335.679 125.637 333.814 125.168 332.106 124.182C326.917 121.186 325.14 114.552 328.136 109.364L343.148 83.3617C346.145 78.1733 352.777 76.3954 357.966 79.3915C363.154 82.3876 364.932 89.0208 361.936 94.2091L346.923 120.212C344.914 123.691 341.267 125.637 337.519 125.637Z" fill="white"/>
<path d="M159.448 434.063C157.607 434.063 155.742 433.594 154.034 432.608C148.846 429.611 147.068 422.978 150.064 417.79L165.077 391.787C168.073 386.6 174.708 384.822 179.894 387.817C185.083 390.813 186.86 397.447 183.864 402.635L168.852 428.637C166.843 432.117 163.197 434.063 159.448 434.063Z" fill="white"/>
<path d="M423.204 363.392C421.364 363.392 419.499 362.922 417.791 361.936L391.788 346.923C386.6 343.927 384.822 337.294 387.818 332.106C390.814 326.917 397.445 325.14 402.636 328.136L428.638 343.149C433.827 346.145 435.605 352.778 432.609 357.966C430.599 361.446 426.953 363.392 423.204 363.392Z" fill="white"/>
<path d="M114.777 185.32C112.936 185.32 111.071 184.85 109.363 183.864L83.3616 168.851C78.1733 165.855 76.3965 159.221 79.3915 154.034C82.3875 148.847 89.0218 147.07 94.2102 150.064L120.212 165.077C125.4 168.073 127.177 174.707 124.182 179.894C122.173 183.374 118.527 185.32 114.777 185.32Z" fill="white"/>
<path d="M397.223 185.32C393.473 185.32 389.828 183.374 387.818 179.894C384.822 174.706 386.6 168.073 391.788 165.077L417.791 150.064C422.978 147.069 429.612 148.847 432.609 154.034C435.605 159.222 433.827 165.855 428.638 168.851L402.636 183.864C400.927 184.85 399.063 185.32 397.223 185.32Z" fill="white"/>
<path d="M88.7962 363.392C85.0473 363.392 81.4015 361.446 79.3915 357.966C76.3954 352.779 78.1733 346.145 83.3616 343.149L109.363 328.136C114.55 325.138 121.186 326.917 124.182 332.106C127.178 337.293 125.4 343.927 120.212 346.923L94.2102 361.936C92.5028 362.922 90.637 363.392 88.7962 363.392Z" fill="white"/>
<path d="M352.553 434.063C348.803 434.063 345.158 432.117 343.148 428.637L328.136 402.636C325.14 397.448 326.917 390.814 332.106 387.818C337.294 384.823 343.928 386.601 346.923 391.788L361.936 417.791C364.932 422.979 363.154 429.612 357.966 432.609C356.259 433.595 354.393 434.063 352.553 434.063Z" fill="white"/>
<path d="M174.48 125.637C170.731 125.637 167.086 123.691 165.077 120.211L150.064 94.2101C147.068 89.0218 148.846 82.3885 154.034 79.3925C159.222 76.3964 165.857 78.1743 168.852 83.3626L183.864 109.365C186.86 114.553 185.083 121.188 179.894 124.183C178.186 125.169 176.32 125.637 174.48 125.637Z" fill="white"/>
<path d="M256 459.932C143.551 459.932 52.0678 368.448 52.0678 256C52.0678 143.552 143.551 52.0679 256 52.0679C368.448 52.0679 459.932 143.552 459.932 256C459.932 368.448 368.448 459.932 256 459.932ZM256 73.7628C155.513 73.7628 73.7627 155.514 73.7627 256C73.7627 356.487 155.513 438.237 256 438.237C356.487 438.237 438.237 356.487 438.237 256C438.237 155.514 356.487 73.7628 256 73.7628Z" fill="white"/>
<path d="M333.071 343.973C330.433 343.973 327.797 342.966 325.784 340.955L262.597 277.769C258.573 273.744 258.568 267.213 262.592 263.19C266.617 259.166 273.136 259.161 277.161 263.184L340.359 326.381C344.383 330.406 344.383 336.932 340.359 340.956C338.345 342.966 335.708 343.973 333.071 343.973Z" fill="white"/>
<path d="M256 286.416C239.353 286.416 225.812 272.869 225.812 256.217V184.624C225.812 176.554 228.953 168.97 234.655 163.267C240.356 157.565 247.937 154.424 256 154.424C272.652 154.424 286.199 167.972 286.199 184.624V256.217C286.199 257.156 286.162 258.018 286.087 258.847C286.064 259.147 286.029 259.445 285.991 259.731C285.845 261.033 285.602 262.36 285.263 263.679C285.14 264.189 284.997 264.698 284.838 265.208C284.569 266.077 284.239 266.978 283.841 267.931C283.812 268.003 283.78 268.073 283.75 268.144C283.579 268.531 283.406 268.915 283.221 269.301C283.017 269.723 282.825 270.114 282.621 270.49C281.938 271.759 281.124 273.041 280.218 274.261C279.933 274.641 279.55 275.142 279.088 275.68C278.933 275.874 278.772 276.061 278.605 276.243C278.199 276.702 277.79 277.138 277.355 277.574C277.22 277.712 277.063 277.864 276.897 278.015C271.254 283.434 263.843 286.416 256 286.416ZM256 175.034C253.443 175.034 251.038 176.031 249.229 177.841C247.419 179.651 246.422 182.06 246.422 184.624V256.217C246.422 261.504 250.718 265.806 256 265.806C258.513 265.806 260.886 264.843 262.677 263.094C262.735 263.038 262.793 262.983 262.851 262.928C262.961 262.816 263.049 262.722 263.133 262.628C263.235 262.503 263.339 262.379 263.447 262.26C263.538 262.157 263.619 262.044 263.702 261.933C263.982 261.555 264.255 261.13 264.483 260.703L264.632 260.401C264.716 260.225 264.789 260.061 264.86 259.901C264.986 259.595 265.085 259.325 265.161 259.081C265.196 258.963 265.221 258.877 265.242 258.79C265.257 258.727 265.272 258.665 265.289 258.602C265.399 258.176 265.474 257.769 265.514 257.393C265.525 257.282 265.538 257.174 265.553 257.063C265.556 257.042 265.558 257.024 265.559 257.003C265.573 256.863 265.588 256.614 265.588 256.217V184.624C265.589 179.337 261.287 175.034 256 175.034Z" fill="white"/>
</g>
<defs>
<clipPath id="clip0_42_202">
<rect width="512" height="512" fill="white"/>
</clipPath>
</defs>
</svg>
