<svg width="512" height="512" viewBox="0 0 512 512" fill="none" xmlns="http://www.w3.org/2000/svg">
<path d="M192 32H67.072C41.472 32 22.272 52.736 22.272 76.8V190.464C22.272 216.064 43.008 235.264 67.072 235.264H192C217.6 235.264 236.8 214.528 236.8 190.464V76.8C236.8 52.736 217.6 32 192 32ZM214.528 190.464C214.528 203.264 204.8 212.736 192 212.736H67.072C54.272 212.736 44.544 203.008 44.544 190.464V76.8C44.544 64 54.272 54.272 67.072 54.272H192C204.8 54.272 214.528 63.744 214.528 76.8V190.464Z" fill="white"/>
<path d="M96 96H163.328V163.328H96V96Z" fill="#4361EE"/>
<path d="M188.928 272.128H67.328C43.264 272.128 24.064 291.328 24.064 316.928V427.264C24.064 451.328 43.264 472.064 67.328 472.064H188.928C212.992 472.064 232.192 452.864 232.192 427.264V316.928C233.728 291.328 212.736 272.128 188.928 272.128ZM211.2 425.728C211.2 438.528 201.472 448.256 188.672 448.256H67.328C54.528 448.256 44.8 438.528 44.8 425.728V315.392C44.8 302.592 54.272 292.864 67.328 292.864H188.928C201.728 292.864 211.456 302.592 211.456 315.392V425.728H211.2Z" fill="white"/>
<path d="M96 334.336H161.536V399.872H96V334.336Z" fill="#00B3FF"/>
<path d="M316.672 235.264H441.344C466.944 235.264 486.144 214.528 486.144 190.464V76.8C486.144 51.2 465.408 32 441.344 32H316.672C291.072 32 271.872 52.736 271.872 76.8V190.464C272.128 216.064 292.864 235.264 316.672 235.264ZM294.4 76.8C294.4 64 304.128 54.272 316.672 54.272H441.344C454.144 54.272 463.872 64 463.872 76.8V190.464C463.872 203.264 454.144 212.736 441.344 212.736H316.672C303.872 212.736 294.4 203.008 294.4 190.464V76.8Z" fill="white"/>
<path d="M350.464 96H417.536V163.328H350.208L350.464 96Z" fill="#00B3FF"/>
<path d="M286.464 358.4H355.328C361.728 358.4 366.592 353.536 366.592 347.136V278.272C366.592 271.872 361.728 267.008 355.328 267.008H286.464C280.064 267.008 275.2 271.872 275.2 278.272V347.136C275.2 353.536 280.064 358.4 286.464 358.4ZM443.136 281.6V300.8C443.136 307.2 449.536 313.6 455.936 313.6H475.136C481.536 313.6 487.936 307.2 487.936 300.8V281.6C487.936 275.2 481.536 268.8 475.136 268.8H455.936C449.536 268.8 443.136 273.664 443.136 281.6ZM291.328 472.064H315.392C321.792 472.064 326.656 467.2 326.656 460.8V436.736C326.656 430.336 321.792 425.472 315.392 425.472H291.328C284.928 425.472 280.064 430.336 280.064 436.736V460.8C280.064 467.2 284.672 472.064 291.328 472.064ZM472.064 352H422.4C414.464 352 408.064 358.4 408.064 366.336V388.864H384C374.272 388.864 367.872 395.264 367.872 404.992V454.656C367.872 462.592 374.272 468.992 382.208 468.992L471.808 470.528C479.744 470.528 486.144 464.128 486.144 456.192V366.592C486.4 358.4 480 352 472.064 352Z" fill="white"/>
</svg>
