<svg width="512" height="512" viewBox="0 0 512 512" fill="none" xmlns="http://www.w3.org/2000/svg">
<g clip-path="url(#clip0_40_117)">
<path d="M211.426 383.388H28.3185C18.9394 383.388 11.3274 375.776 11.3274 366.397V290.356H13.7628H500.673V366.397C500.673 375.776 493.06 383.388 483.681 383.388H300.573H211.426ZM272.504 336.425C272.504 327.974 265.662 321.133 257.212 321.133C248.773 321.133 241.92 327.974 241.92 336.425C241.92 344.875 248.773 351.717 257.212 351.717C265.662 351.717 272.504 344.875 272.504 336.425Z" fill="#00B3FF"/>
<path d="M262.751 186.529L298.546 167.669L206.658 130.447L243.891 222.323L262.751 186.529ZM500.673 67.738V290.356H13.7628H11.3274V67.738C11.3274 58.3589 18.9394 50.7468 28.3185 50.7468H483.681C493.06 50.7468 500.673 58.3589 500.673 67.738Z" fill="#4361EE"/>
<path d="M362.025 460.97L362.013 461.253H149.986L149.975 460.97C184.218 459.327 211.415 431.111 211.426 396.46V396.449V383.388H300.573V396.449V396.46C300.585 431.111 327.782 459.327 362.025 460.97Z" fill="#00B2FF"/>
<path d="M298.546 167.669L262.751 186.529L243.891 222.324L206.658 130.447L298.546 167.669Z" fill="#FF7124"/>
<path d="M257.212 321.133C265.662 321.133 272.504 327.975 272.504 336.425C272.504 344.875 265.662 351.717 257.212 351.717C248.773 351.717 241.92 344.875 241.92 336.425C241.92 327.975 248.773 321.133 257.212 321.133Z" fill="white"/>
<path d="M483.681 394.716H28.3186C12.7037 394.716 0 382.012 0 366.397V67.738C0 52.1232 12.7037 39.4194 28.3186 39.4194H483.681C499.296 39.4194 512 52.1232 512 67.738V366.397C512 382.012 499.296 394.716 483.681 394.716ZM28.3186 62.0743C25.1956 62.0743 22.6549 64.615 22.6549 67.738V366.397C22.6549 369.52 25.1956 372.061 28.3186 372.061H483.681C486.804 372.061 489.345 369.52 489.345 366.397V67.738C489.345 64.615 486.804 62.0743 483.681 62.0743H28.3186Z" fill="white"/>
<path d="M243.892 233.651C243.703 233.651 243.514 233.647 243.325 233.636C238.922 233.417 235.047 230.663 233.393 226.578L196.161 134.701C193.811 128.903 196.607 122.298 202.404 119.949C208.206 117.597 214.808 120.395 217.156 126.192L245.233 195.475L252.73 181.247C255.646 175.712 262.498 173.587 268.031 176.505C273.567 179.422 275.689 186.272 272.773 191.807L253.912 227.602C251.946 231.336 248.08 233.651 243.892 233.651Z" fill="white"/>
<path d="M262.761 197.859C258.691 197.859 254.76 195.66 252.731 191.81C249.814 186.275 251.937 179.424 257.473 176.508L271.695 169.013L202.407 140.946C196.609 138.597 193.812 131.993 196.161 126.194C198.509 120.395 205.115 117.6 210.912 119.949L302.799 157.17C306.884 158.825 309.639 162.701 309.859 167.102C310.078 171.505 307.726 175.635 303.826 177.69L268.031 196.55C266.348 197.437 264.541 197.859 262.761 197.859Z" fill="white"/>
<path d="M291.874 226.99C288.974 226.99 286.075 225.884 283.863 223.671L254.74 194.537C250.318 190.113 250.319 182.94 254.744 178.518C259.167 174.095 266.339 174.097 270.763 178.52L299.886 207.654C304.308 212.079 304.307 219.251 299.882 223.674C297.67 225.885 294.772 226.99 291.874 226.99Z" fill="white"/>
<path d="M500.672 301.683H13.7627C7.5066 301.683 2.4353 296.612 2.4353 290.356C2.4353 284.1 7.5066 279.029 13.7627 279.029H500.672C506.927 279.029 512 284.1 512 290.356C512 296.612 506.927 301.683 500.672 301.683Z" fill="white"/>
<path d="M362.014 472.581H149.987C143.732 472.581 138.659 467.509 138.659 461.253C138.659 454.997 143.732 449.926 149.987 449.926H362.014C368.269 449.926 373.341 454.997 373.341 461.253C373.341 467.509 368.269 472.581 362.014 472.581Z" fill="white"/>
<path d="M365.163 472.365C363.946 472.365 362.724 472.339 361.532 472.287C320.99 470.342 289.26 437.037 289.246 396.464C289.244 390.207 294.314 385.135 300.569 385.133H300.574C306.827 385.133 311.899 390.202 311.901 396.457C311.911 424.926 334.166 448.293 362.567 449.656C363.394 449.692 364.274 449.711 365.163 449.711C371.419 449.711 376.49 454.782 376.49 461.038C376.49 467.294 371.419 472.365 365.163 472.365Z" fill="white"/>
<path d="M146.837 472.365C140.582 472.365 135.51 467.294 135.51 461.038C135.51 454.782 140.582 449.711 146.837 449.711C147.726 449.711 148.606 449.692 149.484 449.654C177.834 448.293 200.09 424.926 200.1 396.457C200.102 390.202 205.174 385.133 211.428 385.133C211.428 385.133 211.43 385.133 211.432 385.133C217.688 385.135 222.757 390.207 222.755 396.464C222.74 437.037 191.011 470.341 150.519 472.284C149.276 472.338 148.054 472.365 146.837 472.365Z" fill="white"/>
<path d="M211.427 407.782C205.17 407.782 200.099 402.716 200.099 396.46V383.15C200.099 376.894 205.17 371.823 211.427 371.823C217.682 371.823 222.754 376.894 222.754 383.15V396.449C222.754 402.705 217.683 407.782 211.427 407.782Z" fill="white"/>
<path d="M300.574 407.782C294.317 407.782 289.246 402.716 289.246 396.46V383.15C289.246 376.894 294.317 371.823 300.574 371.823C306.829 371.823 311.901 376.894 311.901 383.15V396.449C311.901 402.705 306.829 407.782 300.574 407.782Z" fill="white"/>
</g>
<defs>
<clipPath id="clip0_40_117">
<rect width="512" height="512" fill="white"/>
</clipPath>
</defs>
</svg>
