<svg width="512" height="512" viewBox="0 0 512 512" fill="none" xmlns="http://www.w3.org/2000/svg">
<g clip-path="url(#clip0_40_154)">
<path d="M435.837 117.902V482.543C435.837 492.64 427.648 500.841 417.539 500.841H94.46C84.3513 500.841 76.1616 492.64 76.1616 482.543V29.4559C76.1616 19.3583 84.3513 11.1575 94.46 11.1575H329.093V99.6036C329.093 109.712 337.282 117.902 347.391 117.902H435.837ZM235.882 449.795V341.076H127.163V449.795H235.882ZM235.882 283.492V174.772H127.163V283.492H235.882Z" fill="#00B3FF"/>
<path d="M435.837 117.902H347.391C337.282 117.902 329.093 109.712 329.093 99.6036V11.1575L435.837 117.902Z" fill="#4361EE"/>
<path d="M235.882 341.076H127.163V449.795H235.882V341.076Z" fill="#4361EE"/>
<path d="M235.882 174.772H127.163V283.492H235.882V174.772Z" fill="#4361EE"/>
<path d="M417.54 512H94.46C78.2179 512 65.0051 498.786 65.0051 482.544V29.456C65.0051 13.2139 78.219 0 94.46 0H329.093C332.052 0 334.889 1.17601 336.982 3.26805L443.727 110.014C445.819 112.107 446.995 114.944 446.995 117.903V482.544C446.995 498.786 433.781 512 417.54 512ZM94.46 22.3152C90.5236 22.3152 87.3203 25.5185 87.3203 29.456V482.543C87.3203 486.48 90.5236 489.684 94.46 489.684H417.54C421.476 489.684 424.68 486.48 424.68 482.543V122.525L324.471 22.3152H94.46Z" fill="white"/>
<path d="M435.837 129.061H347.391C331.148 129.061 317.935 115.847 317.935 99.6048V11.1576C317.935 4.99525 322.932 0 329.093 0C335.254 0 340.25 4.99525 340.25 11.1576V99.6048C340.25 103.542 343.454 106.746 347.391 106.746H435.837C441.998 106.746 446.995 111.742 446.995 117.903C446.995 124.064 441.998 129.061 435.837 129.061Z" fill="white"/>
<path d="M384.836 213.11H275.928C269.767 213.11 264.77 208.113 264.77 201.952C264.77 195.79 269.767 190.794 275.928 190.794H384.836C390.997 190.794 395.994 195.79 395.994 201.952C395.994 208.113 390.998 213.11 384.836 213.11Z" fill="white"/>
<path d="M321.461 267.47H275.928C269.767 267.47 264.77 262.474 264.77 256.313C264.77 250.151 269.767 245.155 275.928 245.155H321.461C327.623 245.155 332.618 250.151 332.618 256.313C332.618 262.474 327.623 267.47 321.461 267.47Z" fill="white"/>
<path d="M176.736 254.649H176.734C173.774 254.648 170.934 253.471 168.842 251.376L149.718 232.229C145.363 227.87 145.368 220.805 149.728 216.45C154.088 212.094 161.152 212.1 165.507 216.46L176.739 227.706L197.543 206.895C201.899 202.536 208.965 202.535 213.322 206.892C217.68 211.248 217.681 218.311 213.325 222.671L184.628 251.379C182.536 253.473 179.696 254.649 176.736 254.649Z" fill="white"/>
<path d="M235.882 294.649H127.164C121.002 294.649 116.006 289.654 116.006 283.492V174.773C116.006 168.612 121.002 163.616 127.164 163.616H235.882C242.045 163.616 247.04 168.612 247.04 174.773V283.492C247.04 289.654 242.045 294.649 235.882 294.649ZM138.322 272.334H224.725V185.931H138.322V272.334Z" fill="white"/>
<path d="M384.836 379.415H275.928C269.767 379.415 264.77 374.418 264.77 368.257C264.77 362.095 269.767 357.099 275.928 357.099H384.836C390.997 357.099 395.994 362.095 395.994 368.257C395.994 374.418 390.998 379.415 384.836 379.415Z" fill="white"/>
<path d="M321.461 433.774H275.928C269.767 433.774 264.77 428.778 264.77 422.617C264.77 416.454 269.767 411.459 275.928 411.459H321.461C327.623 411.459 332.618 416.454 332.618 422.617C332.618 428.778 327.623 433.774 321.461 433.774Z" fill="white"/>
<path d="M235.882 460.954H127.164C121.002 460.954 116.006 455.958 116.006 449.796V341.077C116.006 334.916 121.002 329.919 127.164 329.919H235.882C242.045 329.919 247.04 334.916 247.04 341.077V449.796C247.04 455.958 242.045 460.954 235.882 460.954ZM138.322 438.639H224.725V352.235H138.322V438.639Z" fill="white"/>
</g>
<defs>
<clipPath id="clip0_40_154">
<rect width="512" height="512" fill="white"/>
</clipPath>
</defs>
</svg>
