<svg width="465" height="465" viewBox="0 0 465 465" fill="none" xmlns="http://www.w3.org/2000/svg">
<path d="M213.356 18.6668C224.979 12.0788 239.208 12.0788 250.831 18.6668L329.554 63.2869L407.557 109.153C419.074 115.925 426.189 128.247 426.295 141.608L427.014 232.093L426.295 322.579C426.189 335.939 419.074 348.262 407.557 355.034L329.554 400.9L250.831 445.52C239.208 452.108 224.979 452.108 213.356 445.52L134.633 400.9L56.6295 355.034C45.1124 348.262 37.9979 335.939 37.8917 322.579L37.1724 232.093L37.8917 141.608C37.9979 128.247 45.1124 115.925 56.6295 109.153L134.633 63.2869L213.356 18.6668Z" stroke="url(#paint0_linear_30_116)" stroke-width="14"/>
<path d="M337.38 310.313V329.735H125.745V310.313H135.179H327.947H337.38Z" fill="#4361EE"/>
<path d="M337.38 170.269H327.947H135.179H125.745L231.563 110.745L337.38 170.269ZM198.204 151.288H264.921L231.563 132.521L198.204 151.288Z" fill="#4361EE"/>
<path d="M327.947 290.891V310.313H135.179V290.891H150.055H181.145H216.018H247.108H281.98H313.071H327.947Z" fill="#4CC9F0"/>
<path d="M327.947 170.269V189.691H313.071H281.98H247.108H216.018H181.145H150.055H135.179V170.269H327.947Z" fill="#4CC9F0"/>
<path d="M313.071 275.332V290.891H281.98V275.332H286.218H308.833H313.071Z" fill="#4CC9F0"/>
<path d="M313.071 189.69V205.25H306.774H288.277H281.98V189.69H313.071Z" fill="#4CC9F0"/>
<path d="M308.254 255.663L308.833 275.332H286.218L288.277 205.25H306.774L308.254 255.663Z" fill="#4CC9F0"/>
<path d="M264.921 151.288H198.204L231.563 132.521L264.921 151.288Z" fill="#8ECAC1"/>
<path d="M247.108 275.332V290.891H216.018V275.332H220.255H242.871H247.108Z" fill="#4CC9F0"/>
<path d="M247.108 189.69V205.25H240.811H222.314H216.018V189.69H247.108Z" fill="#4CC9F0"/>
<path d="M242.292 255.663L242.871 275.332H220.255L222.314 205.25H240.811L242.292 255.663Z" fill="#4CC9F0"/>
<path d="M181.145 275.332V290.891H150.055V275.332H154.292H176.908H181.145Z" fill="#4CC9F0"/>
<path d="M181.145 189.69V205.25H174.848H156.352H150.055V189.69H181.145Z" fill="#4CC9F0"/>
<path d="M176.329 255.663L176.908 275.332H154.292L156.352 205.25H174.848L176.329 255.663Z" fill="#4CC9F0"/>
<path d="M181.072 255.532L179.589 205.117L170.103 205.396L171.585 255.811L181.072 255.532Z" fill="white"/>
<path d="M161.097 205.393L151.61 205.114L149.549 275.198L159.035 275.477L161.097 205.393Z" fill="white"/>
<path d="M181.645 275.192L181.066 255.523L171.58 255.802L172.158 275.471L181.645 275.192Z" fill="white"/>
<path d="M181.145 209.758H174.848C172.359 209.758 170.341 207.74 170.341 205.25C170.341 202.761 172.359 200.743 174.848 200.743H176.637V189.691C176.637 187.201 178.655 185.183 181.145 185.183C183.635 185.183 185.653 187.201 185.653 189.691V205.25C185.653 207.74 183.635 209.758 181.145 209.758Z" fill="white"/>
<path d="M174.848 200.743H156.352V209.758H174.848V200.743Z" fill="white"/>
<path d="M156.352 209.758H150.055C147.565 209.758 145.547 207.74 145.547 205.25V189.691C145.547 187.201 147.565 185.183 150.055 185.183C152.545 185.183 154.563 187.201 154.563 189.691V200.743H156.352C158.842 200.743 160.86 202.761 160.86 205.25C160.86 207.74 158.842 209.758 156.352 209.758Z" fill="white"/>
<path d="M150.055 295.399C147.565 295.399 145.547 293.381 145.547 290.891V275.332C145.547 272.842 147.565 270.824 150.055 270.824H154.292C156.782 270.824 158.8 272.842 158.8 275.332C158.8 277.731 156.926 279.692 154.563 279.831V290.891C154.563 293.381 152.545 295.399 150.055 295.399Z" fill="white"/>
<path d="M176.908 270.824H154.292V279.839H176.908V270.824Z" fill="white"/>
<path d="M181.145 295.399C178.655 295.399 176.637 293.381 176.637 290.891V279.831C174.274 279.691 172.4 277.73 172.4 275.332C172.4 272.842 174.418 270.824 176.908 270.824H181.145C183.635 270.824 185.653 272.842 185.653 275.332V290.891C185.653 293.381 183.635 295.399 181.145 295.399Z" fill="white"/>
<path d="M247.038 255.533L245.555 205.119L236.068 205.398L237.551 255.812L247.038 255.533Z" fill="white"/>
<path d="M227.061 205.394L217.575 205.115L215.514 275.198L225 275.477L227.061 205.394Z" fill="white"/>
<path d="M247.607 275.194L247.028 255.525L237.541 255.804L238.12 275.473L247.607 275.194Z" fill="white"/>
<path d="M247.108 209.758H240.811C238.321 209.758 236.303 207.74 236.303 205.25C236.303 202.761 238.321 200.743 240.811 200.743H242.6V189.691C242.6 187.201 244.618 185.183 247.108 185.183C249.598 185.183 251.616 187.201 251.616 189.691V205.25C251.616 207.74 249.598 209.758 247.108 209.758Z" fill="white"/>
<path d="M240.811 200.743H222.314V209.758H240.811V200.743Z" fill="white"/>
<path d="M222.314 209.758H216.018C213.528 209.758 211.51 207.74 211.51 205.25V189.691C211.51 187.201 213.528 185.183 216.018 185.183C218.507 185.183 220.526 187.201 220.526 189.691V200.743H222.314C224.804 200.743 226.822 202.761 226.822 205.25C226.822 207.74 224.804 209.758 222.314 209.758Z" fill="white"/>
<path d="M216.018 295.399C213.528 295.399 211.51 293.381 211.51 290.891V275.332C211.51 272.842 213.528 270.824 216.018 270.824H220.255C222.745 270.824 224.763 272.842 224.763 275.332C224.763 277.731 222.889 279.692 220.526 279.831V290.891C220.526 293.381 218.507 295.399 216.018 295.399Z" fill="white"/>
<path d="M242.871 270.824H220.255V279.839H242.871V270.824Z" fill="white"/>
<path d="M247.108 295.399C244.618 295.399 242.6 293.381 242.6 290.891V279.831C240.236 279.691 238.363 277.73 238.363 275.332C238.363 272.842 240.381 270.824 242.871 270.824H247.108C249.598 270.824 251.616 272.842 251.616 275.332V290.891C251.616 293.381 249.598 295.399 247.108 295.399Z" fill="white"/>
<path d="M313.004 255.536L311.521 205.121L302.034 205.4L303.517 255.815L313.004 255.536Z" fill="white"/>
<path d="M293.026 205.394L283.539 205.115L281.478 275.199L290.965 275.478L293.026 205.394Z" fill="white"/>
<path d="M313.568 275.196L312.99 255.527L303.503 255.806L304.081 275.475L313.568 275.196Z" fill="white"/>
<path d="M313.071 209.758H306.774C304.284 209.758 302.266 207.74 302.266 205.25C302.266 202.761 304.284 200.743 306.774 200.743H308.563V189.691C308.563 187.201 310.581 185.183 313.071 185.183C315.561 185.183 317.579 187.201 317.579 189.691V205.25C317.579 207.74 315.561 209.758 313.071 209.758Z" fill="white"/>
<path d="M306.774 200.743H288.277V209.758H306.774V200.743Z" fill="white"/>
<path d="M288.277 209.758H281.98C279.491 209.758 277.472 207.74 277.472 205.25V189.691C277.472 187.201 279.491 185.183 281.98 185.183C284.47 185.183 286.488 187.201 286.488 189.691V200.743H288.277C290.767 200.743 292.785 202.761 292.785 205.25C292.785 207.74 290.767 209.758 288.277 209.758Z" fill="white"/>
<path d="M281.98 295.399C279.491 295.399 277.472 293.381 277.472 290.891V275.332C277.472 272.842 279.491 270.824 281.98 270.824H286.218C288.708 270.824 290.726 272.842 290.726 275.332C290.726 277.731 288.852 279.692 286.488 279.831V290.891C286.488 293.381 284.47 295.399 281.98 295.399Z" fill="white"/>
<path d="M308.833 270.824H286.218V279.839H308.833V270.824Z" fill="white"/>
<path d="M313.071 295.399C310.581 295.399 308.563 293.381 308.563 290.891V279.831C306.199 279.691 304.325 277.73 304.325 275.332C304.325 272.842 306.344 270.824 308.833 270.824H313.071C315.561 270.824 317.579 272.842 317.579 275.332V290.891C317.579 293.381 315.561 295.399 313.071 295.399Z" fill="white"/>
<path d="M327.947 315.059C325.327 315.059 323.202 312.934 323.202 310.314V295.636H139.924V310.314C139.924 312.934 137.799 315.059 135.179 315.059C132.558 315.059 130.434 312.934 130.434 310.314V290.891C130.434 288.271 132.558 286.146 135.179 286.146H327.947C330.567 286.146 332.692 288.271 332.692 290.891V310.314C332.692 312.934 330.568 315.059 327.947 315.059Z" fill="white"/>
<path d="M337.38 175.014H327.947C325.327 175.014 323.202 172.89 323.202 170.269C323.202 169.467 323.401 168.711 323.753 168.047L231.563 116.19L139.373 168.047C139.725 168.71 139.924 169.466 139.924 170.269C139.924 172.89 137.799 175.014 135.179 175.014H125.745C123.588 175.014 121.701 173.559 121.155 171.472C120.609 169.385 121.539 167.191 123.419 166.133L229.237 106.61C230.682 105.797 232.445 105.797 233.889 106.61L339.707 166.133C341.587 167.191 342.518 169.385 341.971 171.472C341.424 173.558 339.538 175.014 337.38 175.014Z" fill="white"/>
<path d="M264.921 155.559H198.204C196.262 155.559 194.565 154.249 194.073 152.371C193.581 150.492 194.418 148.519 196.11 147.566L229.469 128.799C230.769 128.067 232.357 128.067 233.657 128.799L267.015 147.566C268.708 148.519 269.545 150.492 269.053 152.371C268.56 154.249 266.863 155.559 264.921 155.559ZM214.505 147.018H248.62L231.563 137.421L214.505 147.018Z" fill="white"/>
<path d="M327.947 194.436H135.179C132.558 194.436 130.434 192.312 130.434 189.691V170.269C130.434 167.649 132.558 165.524 135.179 165.524H327.947C330.567 165.524 332.692 167.649 332.692 170.269V189.691C332.692 192.311 330.568 194.436 327.947 194.436ZM139.924 184.946H323.202V175.014H139.924V184.946Z" fill="white"/>
<path d="M337.38 334.48H125.745C123.125 334.48 121 332.355 121 329.735V310.313C121 307.693 123.125 305.568 125.745 305.568H337.38C340.001 305.568 342.125 307.693 342.125 310.313V329.735C342.125 332.356 340.001 334.48 337.38 334.48ZM130.49 324.99H332.635V315.058H130.49V324.99Z" fill="white"/>
<defs>
<linearGradient id="paint0_linear_30_116" x1="232.093" y1="0" x2="232.093" y2="464.187" gradientUnits="userSpaceOnUse">
<stop stop-color="#4CC9F0"/>
<stop offset="1" stop-color="#4361EE"/>
</linearGradient>
</defs>
</svg>
